<svg xmlns="http://www.w3.org/2000/svg" width="61" height="60" viewBox="0 0 61 60">
    <path fill="#000" fill-rule="nonzero" d="M56.308 3.75H5.63c-.563 0-.939.375-.939.938v28.125c0 .562.376.937.939.937h50.677c.563 0 .938-.375.938-.938V4.689c0-.563-.375-.938-.938-.938zm-.939 28.125H6.57V5.625h48.8v26.25zM58.185 0H3.754C2.158 0 .938 1.219.938 2.813v36.562c0 1.594 1.22 2.813 2.816 2.813h54.43c1.596 0 2.816-1.22 2.816-2.813V2.812C61 1.22 59.78 0 58.185 0zm.938 39.375c0 .563-.375.938-.938.938H3.754c-.563 0-.939-.376-.939-.938V2.812c0-.562.376-.937.939-.937h54.43c.564 0 .94.375.94.938v36.562zm-3.754-2.344c0 .75-.657 1.407-1.407 1.407-.751 0-1.408-.657-1.408-1.407s.657-1.406 1.408-1.406c.75 0 1.407.656 1.407 1.406zm-4.692.469c0 .563-.375.938-.939.938h-8.446c-.563 0-.938-.376-.938-.938 0-.563.375-.938.938-.938h8.446c.564 0 .939.376.939.938zm4.692 14.063c0-2.626-2.064-4.688-4.692-4.688H48.8c-1.595 0-2.815-1.219-2.815-2.813 0-.562-.376-.937-.939-.937s-.938.375-.938.938c0 2.624 2.064 4.687 4.692 4.687h1.877c1.595 0 2.815 1.219 2.815 2.813-3.097 0-5.63 2.53-5.63 5.624 0 1.594 1.22 2.813 2.815 2.813h7.508C59.78 60 61 58.781 61 57.187c0-3.093-2.534-5.624-5.63-5.624zm2.816 6.562h-7.508c-.563 0-.939-.375-.939-.938 0-2.062 1.69-3.75 3.754-3.75h1.877a3.763 3.763 0 0 1 3.754 3.75c0 .563-.375.938-.938.938zm-14.077-7.5c0 .563-.376.938-.939.938h-24.4c-.563 0-.938-.376-.938-.938 0-.563.375-.938.938-.938h.939c3.097 0 5.63-2.53 5.63-5.624 0-.563.376-.938.939-.938s.938.375.938.938c0 2.25-1.032 4.218-2.533 5.624h12.575a7.38 7.38 0 0 1-2.534-5.624c0-.563.375-.938.939-.938.563 0 .938.375.938.938 0 3.093 2.534 5.624 5.63 5.624h.94c.562 0 .938.376.938.938zm-2.816 4.5c-.094-.375-.469-.75-.938-.75H2.815c-.469 0-.844.281-.938.75l-.939 3.75c-.093.281 0 .563.188.844.188.187.47.281.75.281h39.416c.282 0 .563-.094.751-.375.188-.188.282-.563.188-.844l-.939-3.656zm-38.195 3l.47-1.875h36.036l.47 1.875H3.096z"/>
</svg>
