<svg xmlns="http://www.w3.org/2000/svg" width="50" height="60" viewBox="0 0 50 60">
    <g fill="#000" fill-rule="nonzero">
        <path d="M29.808 10.149V7.742h5.769V0H14.423v7.742h5.77v2.407C8.7 12.412 0 22.619 0 34.839 0 48.713 11.215 60 25 60s25-11.287 25-25.161c0-12.22-8.7-22.427-20.192-24.69zM16.346 1.935h1.923v1.936h1.923V1.935h1.923v1.936h1.923V1.935h1.924v1.936h1.923V1.935h1.923v1.936h1.923V1.935h1.923v3.871H16.346v-3.87zm5.77 5.807h5.769V9.85A25.124 25.124 0 0 0 25 9.677c-.976 0-1.938.063-2.885.173V7.742zM25 58.065c-12.724 0-23.077-10.42-23.077-23.226S12.276 11.613 25 11.613c12.724 0 23.077 10.42 23.077 23.226S37.724 58.065 25 58.065z"/>
        <path d="M25 13.548c-11.664 0-21.154 9.551-21.154 21.29 0 11.74 9.49 21.291 21.154 21.291 5.018 0 9.885-1.8 13.702-5.069l-1.246-1.474A19.167 19.167 0 0 1 25 54.194c-10.604 0-19.23-8.683-19.23-19.355 0-10.346 8.113-18.797 18.268-19.306v1.886h-2.884v4.148c-3.701.924-6.471 4.11-6.713 7.855-.156 2.439.668 4.759 2.321 6.533a8.659 8.659 0 0 0 6.315 2.755h3.743c.517 0 .978.35 1.051.797a.972.972 0 0 1-.948 1.138h-3.846a.966.966 0 0 1-.962-.968v-.967h-7.692v.967c0 4.091 2.84 7.6 6.73 8.488v4.093h7.693V48.11c3.701-.924 6.471-4.11 6.713-7.855a8.761 8.761 0 0 0-.892-4.449h9.517c-.232 4.734-2.131 9.17-5.448 12.578l1.374 1.355c3.898-4.004 6.044-9.295 6.044-14.9 0-11.74-9.49-21.29-21.154-21.29zm19.182 20.323h-18.22V15.533c9.835.493 17.73 8.439 18.22 18.338zm-20.144-2.903h-.858c-.517 0-.978-.35-1.051-.798a.972.972 0 0 1 .948-1.138h.961v1.936zm9.601 9.162c-.2 3.116-2.681 5.737-5.9 6.23l-.816.125v3.838h-3.846v-3.825l-.842-.105c-3.034-.383-5.394-2.776-5.82-5.747h3.943a2.891 2.891 0 0 0 2.72 1.936h3.846c.847 0 1.648-.373 2.198-1.023.55-.65.786-1.51.648-2.362-.225-1.382-1.492-2.423-2.95-2.423h-3.743c-1.88 0-3.625-.76-4.912-2.142a6.75 6.75 0 0 1-1.804-5.085c.2-3.116 2.681-5.737 5.9-6.23l.816-.125v-3.837h.961v7.742h-.961c-.847 0-1.648.372-2.198 1.023-.55.65-.786 1.51-.648 2.361.224 1.38 1.491 2.422 2.949 2.422h.858v2.903h8.401a6.8 6.8 0 0 1 1.2 4.324z"/>
        <path d="M36.336 29.553l-2.494-.501-.378 1.897 5.528 1.112 2.252-4.532-1.72-.866-1.252 2.521c-1.808-4.304-5.584-7.509-10.182-8.52l-.411 1.89a12.502 12.502 0 0 1 8.657 6.999z"/>
    </g>
</svg>
