<?xml version="1.0" encoding="UTF-8"?>
<svg width="68px" height="60px" viewBox="0 0 68 60" version="1.1" xmlns="http://www.w3.org/2000/svg" xmlns:xlink="http://www.w3.org/1999/xlink">
    <!-- Generator: Sketch 54.1 (76490) - https://sketchapp.com -->
    <title>noun_basket_1652666</title>
    <desc>Created with Sketch.</desc>
    <g id="Page-1" stroke="none" stroke-width="1" fill="none" fill-rule="evenodd">
        <g id="Welcome-Section" transform="translate(-1046.000000, -270.000000)" fill="#000000" fill-rule="nonzero">
            <g id="Group-2" transform="translate(325.000000, 163.000000)">
                <g id="noun_basket_1652666" transform="translate(721.000000, 107.000000)">
                    <g id="Group">
                        <path d="M62.6317778,35.511 L67.9508889,15.411 C68.0695111,14.961 67.9712889,14.4825 67.6856889,14.11425 C67.3993333,13.74525 66.9573333,13.53 66.4888889,13.53 L20.8782667,13.53 C20.3833778,11.232 19.9081333,9.0945 19.4706667,7.24425 C18.5632444,3.42075 15.164,0.75 11.2033778,0.75 L3.56546667,0.75 C3.3456,0.69675 3.11968889,0.66075 2.8832,0.66075 C1.29124444,0.66075 0,1.9425 0,3.5235 C0,5.1045 1.29124444,6.38625 2.88395556,6.38625 C4.39884444,6.38625 5.62662222,5.22375 5.74448889,3.75 L11.2033778,3.75 C13.7548889,3.75 15.9444889,5.46975 16.5277778,7.93125 C17.6520444,12.67725 19.0279111,19.356 20.3569333,25.815 C21.6935111,32.3025 23.0746667,39.01125 24.2087556,43.79625 C24.9280444,46.83 27.2264444,49.1295 30.1255111,49.9395 C29.2339556,50.93775 28.6869333,52.24725 28.6869333,53.6835 C28.6869333,56.802 31.2437333,59.34 34.3853333,59.34 C37.5269333,59.34 40.0829778,56.802 40.0829778,53.6835 C40.0829778,52.3965 39.6424889,51.2115 38.9103556,50.2605 L50.7249778,50.2605 C49.9920889,51.21225 49.5516,52.3965 49.5516,53.6835 C49.5516,56.802 52.1084,59.34 55.25,59.34 C58.3916,59.34 60.9476444,56.802 60.9476444,53.6835 C60.9476444,52.3965 60.5071556,51.2115 59.7750222,50.2605 L60.4965778,50.2605 C61.3307111,50.2605 62.0076889,49.5885 62.0076889,48.7605 C62.0076889,47.9325 61.3307111,47.2605 60.4965778,47.2605 L32.4367556,47.2605 C29.9555111,47.2605 27.8293778,45.618 27.1984889,43.25325 L52.6017778,43.25325 C57.3391111,43.2525 61.4644444,40.06425 62.6317778,35.511 Z M55.25,56.33925 C53.7744,56.33925 52.5738222,55.1475 52.5738222,53.68275 C52.5738222,52.21875 53.7744,51.027 55.25,51.027 C56.7248444,51.027 57.9254222,52.21875 57.9254222,53.68275 C57.9254222,55.1475 56.7248444,56.33925 55.25,56.33925 Z M34.3853333,56.33925 C32.9097333,56.33925 31.7091556,55.1475 31.7091556,53.68275 C31.7091556,52.21875 32.9097333,51.027 34.3853333,51.027 C35.8601778,51.027 37.0607556,52.21875 37.0607556,53.68275 C37.0607556,55.1475 35.8601778,56.33925 34.3853333,56.33925 Z M21.5167111,16.53 L64.5297333,16.53 L59.7047556,34.76025 C58.8759111,37.99425 55.9549333,40.2525 52.6017778,40.2525 L26.4943111,40.2525 C25.5120889,35.86875 24.4006667,30.46875 23.3187111,25.21425 C22.7188,22.299 22.1090667,19.34025 21.5167111,16.53 Z" id="Shape"></path>
                        <g id="noun_Plus_518521" transform="translate(37.022222, 23.250000)">
                            <path d="M10.0603735,3.98640012 L7.1288179,3.98640012 L7.1288179,1.07640012 C7.07966638,0.46847767 6.5683238,8.8817842e-16 5.95392901,8.8817842e-16 C5.33953422,8.8817842e-16 4.82819164,0.46847767 4.77904012,1.07640012 L4.77904012,3.98640012 L1.83992901,3.98640012 C1.22750343,4.03519023 0.755555556,4.54277294 0.755555556,5.15265012 C0.755555556,5.76252731 1.22750343,6.27011001 1.83992901,6.31890012 L4.77148457,6.31890012 L4.77148457,9.23640012 C4.73599168,9.67538795 4.9518399,10.0969724 5.33000411,10.3272739 C5.70816831,10.5575754 6.18457859,10.5575754 6.5627428,10.3272739 C6.940907,10.0969724 7.15675522,9.67538795 7.12126234,9.23640012 L7.12126234,6.32640012 L10.0603735,6.32640012 C10.7113331,6.32640012 11.2390401,5.80257328 11.2390401,5.15640012 C11.2390401,4.51022696 10.7113331,3.98640012 10.0603735,3.98640012 Z" id="Path"></path>
                        </g>
                    </g>
                </g>
            </g>
        </g>
    </g>
</svg>