<svg xmlns="http://www.w3.org/2000/svg" width="75" height="60" viewBox="0 0 75 60">
    <g fill="#000" fill-rule="nonzero">
        <path d="M20.167 35.417h-.417.417zM27.917 35.417h-.584a.712.712 0 0 1 .584 0z"/>
        <path d="M74 .75H1c-.583 0-1 .417-1 1v56.417c0 .583.417 1 1 1h73c.583 0 1-.417 1-1V1.75c0-.5-.417-1-1-1zm-1 56.417H2V9.833h71v47.334zm0-49.334H2v-5h71v5z"/>
        <path d="M38.75 22.667c-.5-.667-1.333-.75-2.167-.75-1.416 0-3.666-1.417-4.583-2.334C31 18.5 28.5 16 23.833 16c-4.666 0-7.166 2.5-8.166 3.583-.917.917-3.167 2.334-4.584 2.334-.833 0-1.666.083-2.166.75-.5.666-.25 1.416 0 2v.083c.166.583.333 2.167.333 3.083.5 5.25.75 7.584 4.5 8.917.833.333 2 .5 3.5.667l.667.083h.416l-.583 1.167c0 .083-.083.083-.083.166l-6.25 12.584c-.25.5 0 1.083.416 1.333.167.083.334.083.417.083.333 0 .75-.166.917-.583l3.5-7 7.083-2.917 7.083 2.834 3.5 7c.167.333.5.583.917.583.167 0 .333 0 .417-.083.5-.25.666-.834.416-1.334L32.417 44v-.083-.084l-2.5-5.083-.084-.167-.583-1.166 1-.084c1.5-.166 2.667-.333 3.583-.666 3.75-1.25 4-3.667 4.5-8.917 0-.833.167-2.417.334-3v-.083c.333-.667.583-1.417.083-2zM18 42.417l1-2.084 2.083.834L18 42.417zm2-3.834l.5-1.083H27l.583 1.083-3.833 1.584L20 38.583zm9.5 3.834l-3.083-1.25 2-.834 1.083 2.084zM36.833 24v.083c-.333 1.084-.416 3.25-.5 3.5-.583 5.417-.833 6.334-3.166 7.167-.75.25-1.834.417-3.084.583L28 35.417H18l-.667-.084a11.917 11.917 0 0 1-3-.583C12 33.917 11.75 33 11.167 27.583c0-.25-.084-2.5-.5-3.5V24v-.083h.25c2.083 0 4.833-1.75 6.083-3 1-1 2.833-2.917 6.75-2.917s5.75 1.917 6.75 2.917c1.167 1.25 4 3 6.083 3h.334c-.084 0-.084.083-.084.083z"/>
        <circle cx="4.667" cy="5.333" r="1"/>
        <circle cx="7.917" cy="5.333" r="1"/>
        <circle cx="11" cy="5.333" r="1"/>
        <path d="M58.583 34.083h-11.5c-.583 0-1-.416-1-1 0-.583.417-1 1-1h11.5c.584 0 1 .417 1 1 .084.5-.416 1-1 1zM67.083 40.75h-20c-.583 0-1-.417-1-1s.417-1 1-1h20c.584 0 1 .417 1 1s-.416 1-1 1zM67.083 44.167h-20c-.583 0-1-.417-1-1 0-.584.417-1 1-1h20c.584 0 1 .416 1 1 0 .583-.416 1-1 1zM67.083 47.583h-20c-.583 0-1-.416-1-1 0-.583.417-1 1-1h20c.584 0 1 .417 1 1 0 .584-.416 1-1 1zM63.167 51.083H47.083c-.583 0-1-.416-1-1 0-.583.417-1 1-1h16c.584 0 1 .417 1 1 0 .584-.416 1-.916 1zM52.25 22.917c0 1.333-.833 2.5-2.083 2.833v.5c0 .583-.417 1-1 1-.584 0-1-.417-1-1v-.417c-1.167-.416-2.084-1.5-2.084-2.833 0-.583.417-1 1-1 .584 0 1 .417 1 1s.5 1 1 1c.584 0 1-.5 1-1 0-.583-.5-1-1-1h-.166c-1.584-.083-2.834-1.417-2.834-3 0-1.333.834-2.5 2.084-2.833V15.5c0-.583.416-1 1-1 .583 0 1 .417 1 1v.667c1.166.416 2.083 1.5 2.083 2.833 0 .583-.417 1-1 1s-1-.417-1-1-.5-1-1-1c-.583 0-1 .5-1 1 0 .583.5 1 1 1h.167c1.5 0 2.833 1.333 2.833 2.917z"/>
    </g>
</svg>
