<svg xmlns="http://www.w3.org/2000/svg" width="60" height="60" viewBox="0 0 60 60">
    <g fill="#000" fill-rule="nonzero">
        <path d="M47.8 2.4A1 1 0 0 0 47 2H14a1 1 0 0 0-.776.37l-13 16A1 1 0 0 0 0 19a39.542 39.542 0 0 0 19.474 33.989l10.02 5.874a1 1 0 0 0 1.012 0l10.02-5.874A39.542 39.542 0 0 0 60 19a1 1 0 0 0-.2-.6l-12-16zm-8.285 48.863L30 56.841l-9.515-5.578A37.538 37.538 0 0 1 2 19.353L14.476 4H46.5L58 19.332a37.536 37.536 0 0 1-18.485 31.931z"/>
        <path d="M44.069 7h-27.31a1 1 0 0 0-.759.354L5.236 20.079a1 1 0 0 0-.236.645A32.9 32.9 0 0 0 21.2 49l8.293 4.862a1 1 0 0 0 1.012 0L38.8 49A32.9 32.9 0 0 0 55 20.724a1 1 0 0 0-.212-.615L44.857 7.385A1 1 0 0 0 44.069 7zm-6.282 40.276L30 51.841l-7.787-4.565A30.9 30.9 0 0 1 7 21.088L17.223 9h26.358L53 21.066a30.9 30.9 0 0 1-15.213 26.21z"/>
        <path d="M42 18.945V15a3 3 0 0 0-3-3h-2.184A3 3 0 0 0 34 10h-6a3 3 0 0 0-2.884 2.22A2.984 2.984 0 0 0 24 12h-1.383a3.015 3.015 0 0 0-2.933 2.372l-2.014 9.4a8.018 8.018 0 0 0 1.312 6.328l1.9 2.661A5.973 5.973 0 0 1 22 36.243V38h-2a1 1 0 0 0-1 1v4a1 1 0 0 0 1 1h20a1 1 0 0 0 1-1v-4a1 1 0 0 0-1-1h-2v-3.2a3 3 0 0 1 1.007-2.242l4.361-3.877A5.9 5.9 0 0 0 42 18.945zM40 15v3.386a5.9 5.9 0 0 0-3 .517V14h2a1 1 0 0 1 1 1zm-5-2v6.882l-.236.118H32.2c-.068 0-.131.016-.2.02V12h2a1 1 0 0 1 1 1zm-8 0a1 1 0 0 1 1-1h2v8h-3v-7zm12 29H21v-2h18v2zm3.04-14.818l-4.361 3.877A5 5 0 0 0 36 34.8V38H24v-1.757a7.957 7.957 0 0 0-1.49-4.649l-1.9-2.661a6.017 6.017 0 0 1-.984-4.745l2.014-9.4a1 1 0 0 1 .978-.79H24a1 1 0 0 1 1 1v5h-1.279l-.773-2.316-1.9.632 1 3A1 1 0 0 0 23 22h6.238c-.157.38-.237.788-.238 1.2a3.206 3.206 0 0 0 1.551 2.739 5.931 5.931 0 0 0-1.88 3.395l1.971.336a3.939 3.939 0 0 1 2.446-3l.061-.023 1.655.33a.991.991 0 0 0 .643-.085l2-1-.894-1.79-1.694.847-2.9-.579A1.2 1.2 0 0 1 32.2 22H35a1 1 0 0 0 .447-.105L37.7 20.77a3.906 3.906 0 0 1 4.343 6.412h-.003zM58 1h-2v2h-2v2h2v2h2V5h2V3h-2zM56 10h2v2h-2zM58 54h-2v2h-2v2h2v2h2v-2h2v-2h-2zM2 49h2v-2h2v-2H4v-2H2v2H0v2h2zM6 53h2v2H6zM16 56h2v2h-2zM40 56h2v2h-2zM56 44h2v2h-2zM2 12h2v-2h2V8H4V6H2v2H0v2h2zM4 0h2v2H4z"/>
    </g>
</svg>
