<?xml version="1.0" encoding="UTF-8"?>
<svg width="60px" height="60px" viewBox="0 0 60 60" version="1.1" xmlns="http://www.w3.org/2000/svg" xmlns:xlink="http://www.w3.org/1999/xlink">
    <!-- Generator: Sketch 54.1 (76490) - https://sketchapp.com -->
    <title>noun_link_2510203</title>
    <desc>Created with Sketch.</desc>
    <g id="Page-1" stroke="none" stroke-width="1" fill="none" fill-rule="evenodd">
        <g id="Welcome-Section" transform="translate(-345.000000, -270.000000)" fill="#000000" fill-rule="nonzero">
            <g id="Group-2" transform="translate(325.000000, 163.000000)">
                <g id="noun_link_2510203" transform="translate(20.000000, 107.000000)">
                    <path d="M23.75976,29.1710467 L21.23964,31.69098 C17.69282,30.4643133 14.4393533,32.77094 9.60582667,37.6107733 C2.96558667,44.24388 1.07883333,47.91042 6.58572667,53.41022 C12.09262,58.9167 15.75276,57.0300867 22.3930067,50.39698 C27.2265333,45.56382 29.54,42.3039267 28.3066133,38.7640533 L30.8266667,36.2374933 C34.1268067,42.4506067 29.8866667,47.61042 24.7464267,52.7502533 C18.5462133,58.95 12.3126,63.8498333 4.23228,55.7701267 C-3.84804,47.69042 1.04550667,41.4506667 7.24574667,35.2508733 C12.386,30.11104 17.5461733,25.8712 23.75976,29.1710467 Z M55.76772,4.23195333 C47.6940333,-3.84776 41.4537867,1.04542 35.2535467,7.24519333 C30.12,12.3783533 25.87984,17.5448333 29.1733333,23.7579133 L31.6933867,21.238 C30.46,17.6981467 32.7734267,14.4382533 37.6136267,9.60509333 C44.24724,2.96531333 47.90738,1.07874 53.4142933,6.58522 C58.9212067,12.0917 57.0344333,15.75156 50.4008267,22.3913 C45.56728,27.2244667 42.30718,29.5377333 38.7670333,28.30442 L36.2335667,30.8310267 C42.4538267,34.1308733 47.6140333,29.88436 52.7542333,24.7445733 C58.9544933,18.5448 63.84804,12.31166 55.76772,4.23195333 Z M18.2340667,41.76484 C18.5464197,42.0772171 18.9700758,42.2527107 19.4118267,42.2527107 C19.8535776,42.2527107 20.2772336,42.0772171 20.5895867,41.76484 L41.7666267,20.5894067 C42.4153891,19.9386663 42.4145667,18.885451 41.7647888,18.2357247 C41.1150109,17.5859983 40.0617956,17.5852594 39.4111067,18.2340733 L18.2340667,39.4095 C17.9216711,39.7218067 17.7461616,40.1454388 17.7461616,40.58717 C17.7461616,41.0289012 17.9216711,41.4525333 18.2340667,41.76484 Z" id="Shape"></path>
                </g>
            </g>
        </g>
    </g>
</svg>