<?xml version="1.0" encoding="UTF-8"?>
<svg width="59px" height="60px" viewBox="0 0 59 60" version="1.1" xmlns="http://www.w3.org/2000/svg" xmlns:xlink="http://www.w3.org/1999/xlink">
    <!-- Generator: Sketch 54.1 (76490) - https://sketchapp.com -->
    <title>noun_graphic_1442078</title>
    <desc>Created with Sketch.</desc>
    <g id="Page-1" stroke="none" stroke-width="1" fill="none" fill-rule="evenodd">
        <g id="Welcome-Section" transform="translate(-696.000000, -270.000000)" fill="#000000" fill-rule="nonzero">
            <g id="Group-2" transform="translate(325.000000, 163.000000)">
                <g id="noun_graphic_1442078" transform="translate(371.000000, 107.000000)">
                    <path d="M51.9074468,8.46315789 C52.6606383,9.09473684 53.6021277,9.41052632 54.606383,9.41052632 C57.0542553,9.41052632 59,7.45263158 59,4.98947368 C59,2.52631579 57.0542553,0.568421053 54.606383,0.568421053 C52.1585106,0.568421053 50.212766,2.52631579 50.212766,4.98947368 C50.212766,5.49473684 50.2755319,5.93684211 50.4638298,6.37894737 L44.6265957,10.8631579 C43.8734043,10.3578947 42.9946809,10.0421053 42.0531915,10.0421053 C39.6053191,10.0421053 37.6595745,12 37.6595745,14.4631579 C37.6595745,15.0315789 37.7851064,15.5368421 37.9106383,15.9789474 L32.1361702,20.4 C31.4457447,19.8315789 30.5042553,19.5157895 29.5,19.5157895 C28.6840426,19.5157895 27.9308511,19.7684211 27.2404255,20.1473684 L20.9010638,13.2631579 C21.2148936,12.6947368 21.3404255,12 21.3404255,11.3052632 C21.3404255,8.84210526 19.3946809,6.88421053 16.9468085,6.88421053 C14.9382979,6.88421053 13.306383,8.21052632 12.7414894,10.0421053 L8.59893617,10.0421053 C8.03404255,8.21052632 6.40212766,6.88421053 4.39361702,6.88421053 C1.94574468,6.88421053 0,8.84210526 0,11.3052632 C0,13.7684211 1.94574468,15.7263158 4.39361702,15.7263158 C6.40212766,15.7263158 8.03404255,14.4 8.59893617,12.5684211 L12.7414894,12.5684211 C13.306383,14.4 14.9382979,15.7263158 16.9468085,15.7263158 C17.762766,15.7263158 18.5159574,15.4736842 19.143617,15.0947368 L25.5457447,22.0421053 C25.2946809,22.6105263 25.106383,23.3052632 25.106383,23.9368421 C25.106383,26.4 27.0521277,28.3578947 29.5,28.3578947 C31.9478723,28.3578947 33.893617,26.4 33.893617,23.9368421 C33.893617,23.4315789 33.8308511,22.9263158 33.6425532,22.4842105 L39.4170213,18 C40.1702128,18.5684211 41.0489362,18.8842105 42.0531915,18.8842105 C44.5010638,18.8842105 46.4468085,16.9263158 46.4468085,14.4631579 C46.4468085,13.8947368 46.3212766,13.3894737 46.1329787,12.8842105 L51.9074468,8.46315789 Z" id="Path"></path>
                    <path d="M1.88297872,59.9368421 L6.90425532,59.9368421 C7.9712766,59.9368421 8.78723404,59.1157895 8.78723404,58.0421053 L8.78723404,21.4105263 C8.78723404,20.3368421 7.9712766,19.5157895 6.90425532,19.5157895 L1.88297872,19.5157895 C0.815957447,19.5157895 0,20.3368421 0,21.4105263 L0,58.0421053 C0,59.1157895 0.815957447,59.9368421 1.88297872,59.9368421 Z M4.39361702,22.0421053 L4.39361702,22.0421053 C5.4606383,22.0421053 6.27659574,22.8631579 6.27659574,23.9368421 L6.27659574,55.5157895 C6.27659574,56.5894737 5.4606383,57.4105263 4.39361702,57.4105263 L4.39361702,57.4105263 C3.32659574,57.4105263 2.5106383,56.5894737 2.5106383,55.5157895 L2.5106383,23.9368421 C2.5106383,22.8631579 3.32659574,22.0421053 4.39361702,22.0421053 Z" id="Shape"></path>
                    <path d="M14.4361702,59.9368421 L19.4574468,59.9368421 C20.5244681,59.9368421 21.3404255,59.1157895 21.3404255,58.0421053 L21.3404255,21.4105263 C21.3404255,20.3368421 20.5244681,19.5157895 19.4574468,19.5157895 L14.4361702,19.5157895 C13.3691489,19.5157895 12.5531915,20.3368421 12.5531915,21.4105263 L12.5531915,58.0421053 C12.5531915,59.1157895 13.3691489,59.9368421 14.4361702,59.9368421 Z M16.9468085,22.0421053 L16.9468085,22.0421053 C18.0138298,22.0421053 18.8297872,22.8631579 18.8297872,23.9368421 L18.8297872,55.5157895 C18.8297872,56.5894737 18.0138298,57.4105263 16.9468085,57.4105263 L16.9468085,57.4105263 C15.8797872,57.4105263 15.0638298,56.5894737 15.0638298,55.5157895 L15.0638298,23.9368421 C15.0638298,22.8631579 15.8797872,22.0421053 16.9468085,22.0421053 Z" id="Shape"></path>
                    <path d="M26.9893617,59.9368421 L32.0106383,59.9368421 C33.0776596,59.9368421 33.893617,59.1157895 33.893617,58.0421053 L33.893617,34.0421053 C33.893617,32.9684211 33.0776596,32.1473684 32.0106383,32.1473684 L26.9893617,32.1473684 C25.9223404,32.1473684 25.106383,32.9684211 25.106383,34.0421053 L25.106383,58.0421053 C25.106383,59.1157895 25.9223404,59.9368421 26.9893617,59.9368421 Z M29.5,34.6736842 L29.5,34.6736842 C30.5670213,34.6736842 31.3829787,35.4947368 31.3829787,36.5684211 L31.3829787,55.5157895 C31.3829787,56.5894737 30.5670213,57.4105263 29.5,57.4105263 L29.5,57.4105263 C28.4329787,57.4105263 27.6170213,56.5894737 27.6170213,55.5157895 L27.6170213,36.5684211 C27.6170213,35.4947368 28.4329787,34.6736842 29.5,34.6736842 Z" id="Shape"></path>
                    <path d="M39.5425532,59.9368421 L44.5638298,59.9368421 C45.6308511,59.9368421 46.4468085,59.1157895 46.4468085,58.0421053 L46.4468085,24.5684211 C46.4468085,23.4947368 45.6308511,22.6736842 44.5638298,22.6736842 L39.5425532,22.6736842 C38.4755319,22.6736842 37.6595745,23.4947368 37.6595745,24.5684211 L37.6595745,58.0421053 C37.6595745,59.1157895 38.4755319,59.9368421 39.5425532,59.9368421 Z M42.0531915,25.2 L42.0531915,25.2 C43.1202128,25.2 43.9361702,26.0210526 43.9361702,27.0947368 L43.9361702,55.5157895 C43.9361702,56.5894737 43.1202128,57.4105263 42.0531915,57.4105263 L42.0531915,57.4105263 C40.9861702,57.4105263 40.1702128,56.5894737 40.1702128,55.5157895 L40.1702128,27.0947368 C40.1702128,26.0210526 40.9861702,25.2 42.0531915,25.2 Z" id="Shape"></path>
                    <path d="M52.0957447,59.9368421 L57.1170213,59.9368421 C58.1840426,59.9368421 59,59.1157895 59,58.0421053 L59,15.0947368 C59,14.0210526 58.1840426,13.2 57.1170213,13.2 L52.0957447,13.2 C51.0287234,13.2 50.212766,14.0210526 50.212766,15.0947368 L50.212766,58.0421053 C50.212766,59.1157895 51.0287234,59.9368421 52.0957447,59.9368421 Z M54.606383,15.7263158 L54.606383,15.7263158 C55.6734043,15.7263158 56.4893617,16.5473684 56.4893617,17.6210526 L56.4893617,55.5157895 C56.4893617,56.5894737 55.6734043,57.4105263 54.606383,57.4105263 L54.606383,57.4105263 C53.5393617,57.4105263 52.7234043,56.5894737 52.7234043,55.5157895 L52.7234043,17.6210526 C52.7234043,16.5473684 53.5393617,15.7263158 54.606383,15.7263158 Z" id="Shape"></path>
                </g>
            </g>
        </g>
    </g>
</svg>