<svg xmlns="http://www.w3.org/2000/svg" width="53" height="60" viewBox="0 0 53 60">
    <g fill="#000" fill-rule="nonzero">
        <path d="M11.564 24.194a.967.967 0 0 1-.964-.968H8.673c0 1.26.808 2.324 1.927 2.725v2.114h1.927V25.95a2.898 2.898 0 0 0-.963-5.628.967.967 0 0 1-.964-.968c0-.533.432-.968.964-.968s.963.435.963.968h1.928c0-1.26-.809-2.325-1.928-2.725v-2.114H10.6v2.114a2.898 2.898 0 0 0 .964 5.628c.532 0 .963.435.963.968a.967.967 0 0 1-.963.968z"/>
        <path d="M48.182 0H23.127c-2.656 0-4.818 2.17-4.818 4.839v8.246a10.524 10.524 0 0 0-6.745-2.44c-5.845 0-10.6 4.776-10.6 10.645 0 2.572.912 4.933 2.429 6.775H.752L2.6 37.343a2.902 2.902 0 0 0 2.835 2.334h16.729c.532 0 .963.435.963.968a.967.967 0 0 1-.963.968H4.818c-2.126 0-3.854 1.736-3.854 3.87 0 2.136 1.728 3.872 3.854 3.872 2.126 0 3.855-1.736 3.855-3.871 0-.709-.205-1.364-.536-1.936h6.854a3.835 3.835 0 0 0-.536 1.936c0 2.135 1.728 3.87 3.854 3.87v5.807c0 2.668 2.162 4.839 4.818 4.839h25.055C50.839 60 53 57.83 53 55.161V4.84C53 2.17 50.839 0 48.182 0zM23.127 1.935h25.055a2.9 2.9 0 0 1 2.89 2.904v.967H20.237V4.84a2.9 2.9 0 0 1 2.891-2.904zM11.564 12.581c4.782 0 8.672 3.907 8.672 8.71 0 4.801-3.89 8.709-8.672 8.709-4.783 0-8.673-3.908-8.673-8.71 0-4.802 3.89-8.71 8.673-8.71zM4.49 36.964L3.103 30h2.386a10.5 10.5 0 0 0 12.151 0h4.994l-1.285 7.742H5.435a.967.967 0 0 1-.945-.778zm2.255 8.52a1.933 1.933 0 0 1-1.927 1.935 1.933 1.933 0 0 1-1.927-1.935c0-1.068.864-1.936 1.927-1.936 1.063 0 1.927.868 1.927 1.936zm9.637 0c0-1.068.864-1.936 1.927-1.936 1.063 0 1.927.868 1.927 1.936a1.933 1.933 0 0 1-1.927 1.935 1.933 1.933 0 0 1-1.927-1.935zm5.782 0c0-.709-.205-1.364-.536-1.936h.536a2.904 2.904 0 1 0 1.1-5.585l2.929-17.64H31.8a2.9 2.9 0 0 0 2.89-2.904 2.9 2.9 0 0 0-2.89-2.903h-6.598l-2.248 13.549h-3.22a10.623 10.623 0 0 0 2.43-6.775c0-2.27-.717-4.371-1.928-6.101V7.742h30.837v42.58H20.236v-1.505a3.861 3.861 0 0 0 1.928-3.333zm4.35-27.097l.32-1.935H31.8a.967.967 0 1 1 0 1.935h-5.287zm21.668 39.678H23.127a2.9 2.9 0 0 1-2.89-2.904v-2.903h30.836v2.903a2.9 2.9 0 0 1-2.891 2.904z"/>
        <path d="M32.764 54.194h5.782v1.935h-5.782zM49.145 9.677H22.164v3.892h1.927v-1.956h23.127v34.839H24.091v1.935h25.054z"/>
    </g>
</svg>
