<?xml version="1.0" encoding="UTF-8"?>
<svg width="24px" height="41px" viewBox="0 0 17 34" version="1.1" xmlns="http://www.w3.org/2000/svg" xmlns:xlink="http://www.w3.org/1999/xlink">
    <!-- Generator: Sketch 55 (78076) - https://sketchapp.com -->
    <title>icon-dark-left-arrow</title>
    <desc>Created with Sketch.</desc>
    <g id="Page-1" stroke="none" stroke-width="1" fill="none" fill-rule="evenodd">
        <g id="Artboard" transform="translate(-243.000000, -238.000000)" fill="#F5A623" fill-rule="nonzero">
            <g id="icon-dark-left-arrow" transform="translate(251.500000, 255.000000) rotate(180.000000) translate(-251.500000, -255.000000) translate(243.000000, 238.000000)">
                <path d="M8.66058669,25.1396486 C8.97546504,25.1034468 9.27246298,24.971247 9.51308529,24.7601843 L24.5363411,11.8077912 C25.0329203,11.4591003 25.2930152,10.8519626 25.2072198,10.2417635 C25.1214244,9.63156439 24.7046259,9.12418543 24.1321459,8.93304965 C23.5596658,8.74191387 22.9308406,8.90018711 22.5101783,9.34129356 L8.49999599,21.4208986 L-5.51017843,9.34129356 C-5.93084066,8.90018703 -6.55966596,8.74191371 -7.1321461,8.93304945 C-7.70462624,9.12418522 -8.12142472,9.63156427 -8.20722009,10.2417634 C-8.29301545,10.8519626 -8.03292047,11.4591004 -7.53634114,11.8077912 L7.48691459,24.7601843 C7.81204458,25.0437317 8.23536565,25.1805972 8.66058669,25.1396486 Z" id="Path" transform="translate(8.500000, 16.999992) rotate(90.000000) translate(-8.500000, -16.999992) "></path>
            </g>
        </g>
    </g>
</svg>