<svg xmlns="http://www.w3.org/2000/svg" width="62" height="60" viewBox="0 0 62 60">
    <g fill="#000" fill-rule="nonzero">
        <path d="M14.56 44.276h-1.127v-.633a6.207 6.207 0 0 0 3.1-5.367c0-3.423-2.78-6.207-6.2-6.207-3.419 0-6.2 2.784-6.2 6.207a6.207 6.207 0 0 0 3.1 5.367v.633H6.107C2.739 44.276 0 47.018 0 50.39v8.576C0 59.538.463 60 1.033 60h18.6c.57 0 1.034-.462 1.034-1.034V50.39c0-3.372-2.74-6.114-6.107-6.114zm-4.227 4.76l.699 1.05-.699 1.749-.698-1.748.698-1.05zM6.236 38.636c1.437.136 2.927-.23 4.097-1.088a5.924 5.924 0 0 0 4.095 1.11c-.196 2.103-1.946 3.757-4.095 3.757-2.156 0-3.912-1.667-4.097-3.78zm4.097-4.497a4.135 4.135 0 0 1 3.77 2.457c-1.104.071-2.24-.32-3.027-1.134-.39-.402-1.095-.402-1.485 0-.788.815-1.924 1.205-3.026 1.134a4.132 4.132 0 0 1 3.768-2.457zm0 10.345a6.19 6.19 0 0 0 1.034-.093v.849l-1.034.689-1.033-.689v-.85a6.19 6.19 0 0 0 1.033.094zM18.6 57.93H2.067V50.39a4.047 4.047 0 0 1 4.04-4.045H7.23l1.67 1.114-1.286 1.932c-.19.284-.227.642-.1.958l1.86 4.655a1.034 1.034 0 0 0 1.92 0l1.86-4.655a1.036 1.036 0 0 0-.1-.958l-1.287-1.932 1.67-1.114h1.123a4.047 4.047 0 0 1 4.04 4.045v7.541zM14.56 12.207h-1.127v-.633a6.207 6.207 0 0 0 3.1-5.367c0-3.423-2.78-6.207-6.2-6.207-3.419 0-6.2 2.784-6.2 6.207a6.207 6.207 0 0 0 3.1 5.367v.633H6.107C2.739 12.207 0 14.949 0 18.32v8.576c0 .572.463 1.034 1.033 1.034h18.6c.57 0 1.034-.462 1.034-1.034V18.32c0-3.372-2.74-6.114-6.107-6.114zm-4.227 4.76l.699 1.05-.699 1.749-.698-1.748.698-1.05zm-4.097-10.4c1.437.136 2.928-.232 4.097-1.088a5.924 5.924 0 0 0 4.095 1.11c-.196 2.102-1.946 3.756-4.095 3.756-2.155 0-3.91-1.667-4.097-3.778zm4.097-4.498a4.135 4.135 0 0 1 3.77 2.457c-1.104.071-2.24-.32-3.027-1.134-.39-.402-1.095-.402-1.485 0-.788.815-1.924 1.206-3.027 1.134a4.135 4.135 0 0 1 3.77-2.457zm0 10.345a6.19 6.19 0 0 0 1.034-.093v.849l-1.034.689L9.3 13.17v-.85a6.19 6.19 0 0 0 1.033.094zM18.6 25.862H2.067v-7.541a4.047 4.047 0 0 1 4.04-4.045H7.23L8.9 15.39l-1.286 1.932c-.19.284-.227.642-.1.958l1.86 4.656a1.034 1.034 0 0 0 1.92 0l1.86-4.656a1.036 1.036 0 0 0-.1-.958l-1.287-1.932 1.67-1.114h1.123a4.047 4.047 0 0 1 4.04 4.045v7.541zM49.6 23.793c-4.558 0-8.267 3.713-8.267 8.276s3.709 8.276 8.267 8.276 8.267-3.713 8.267-8.276-3.709-8.276-8.267-8.276zm0 14.483c-3.42 0-6.2-2.784-6.2-6.207s2.78-6.207 6.2-6.207c3.42 0 6.2 2.784 6.2 6.207s-2.78 6.207-6.2 6.207z"/>
        <path d="M50.117 31.034h-1.034a.518.518 0 0 1 0-1.034h2.584v-2.069h-1.034v-1.034h-2.066v1.087a2.589 2.589 0 0 0-2.067 2.533 2.588 2.588 0 0 0 2.583 2.586h1.034a.518.518 0 0 1 0 1.035h-2.584v2.069h1.034v1.034h2.066v-1.087a2.589 2.589 0 0 0 2.067-2.533 2.588 2.588 0 0 0-2.583-2.587zM48.567 19.655h2.067v2.069h-2.067zM48.567 42.414h2.067v2.069h-2.067zM59.933 31.034H62v2.069h-2.067zM37.2 31.034h2.067v2.069H37.2zM56.176 24.023l1.461-1.463 1.461 1.463-1.46 1.463zM40.1 40.115l1.462-1.463 1.461 1.463-1.461 1.463zM56.175 40.116l1.461-1.463 1.462 1.463-1.462 1.463zM40.101 24.023l1.461-1.463 1.462 1.463-1.462 1.463zM28.495 28.867a1.035 1.035 0 0 0 1.1-.14l6.2-5.173a1.038 1.038 0 0 0 0-1.59l-6.2-5.173a1.033 1.033 0 0 0-1.695.795v2.07h-5.167v2.068h6.2c.57 0 1.034-.462 1.034-1.034v-.895l3.552 2.964-3.552 2.963v-.894c0-.572-.463-1.035-1.034-1.035h-6.2v2.07H27.9v2.068c0 .401.233.767.595.936zM35.795 46.79a1.032 1.032 0 0 0-1.695.796v2.07H22.733v2.068h12.4c.57 0 1.034-.462 1.034-1.034v-.895l3.552 2.964-3.552 2.963v-.894c0-.572-.463-1.035-1.034-1.035h-12.4v2.07H34.1v2.068a1.034 1.034 0 0 0 1.695.796l6.2-5.173a1.038 1.038 0 0 0 0-1.59l-6.2-5.173z"/>
    </g>
</svg>
