<svg xmlns="http://www.w3.org/2000/svg" width="37" height="60" viewBox="0 0 37 60">
    <g fill="none" fill-rule="evenodd">
        <g fill="#000" fill-rule="nonzero">
            <path d="M28.212 10.154c-1.717-1.055-1.982-5.275-2.048-7.187 0-.33-.066-.593-.066-.857v-.066c0-.066 0-.132-.066-.198 0-.066-.066-.132-.066-.132 0-.066-.066-.066-.066-.132l-.132-.131c-.066 0-.066-.066-.132-.066s-.132-.066-.198-.066h-.067a52.812 52.812 0 0 0-17.046 0h-.066c-.066 0-.132.066-.198.066s-.066.066-.132.066l-.133.131c-.066.066-.066.066-.066.132s-.066.066-.066.132-.066.132-.066.198v.066c0 .264-.066.527-.066.857-.132 1.912-.396 6.132-2.048 7.187-2.973 0-5.418 2.44-5.418 5.406v29.473c0 2.967 2.445 5.407 5.418 5.407 1.652 1.055 1.916 5.274 2.048 7.186 0 .33.066.594.066.858v.065c0 .066 0 .132.066.132 0 .066.066.132.066.132 0 .066.066.066.066.132l.133.132c.066 0 .066.066.132.066s.132.066.198.066h.066c2.841.461 5.682.66 8.523.66 2.841 0 5.682-.199 8.523-.66h.067c.066 0 .132-.066.198-.066s.066-.066.132-.066l.132-.132c.066-.066.066-.066.066-.132s.066-.132.066-.132c0-.066.066-.132.066-.132v-.065c0-.264.066-.528.066-.858.132-1.912.397-6.131 2.048-7.186 2.974 0 5.418-2.44 5.418-5.407V15.626c.066-3.033-2.378-5.472-5.418-5.472zM9.25 3.099v-.132a52.88 52.88 0 0 1 15.13 0v.132c.133 1.978.33 5.077 1.454 7.12H7.796C8.92 8.177 9.118 5.078 9.25 3.1zM24.38 57.56v.132a52.88 52.88 0 0 1-15.13 0v-.132c-.132-1.978-.33-5.076-1.454-7.12H25.9c-1.19 2.044-1.387 5.142-1.52 7.12zm7.07-12.527a3.24 3.24 0 0 1-3.238 3.23H5.418a3.24 3.24 0 0 1-3.238-3.23V15.626a3.24 3.24 0 0 1 3.238-3.23h22.794a3.24 3.24 0 0 1 3.238 3.23v29.407zM35.282 26.374c-.594 0-1.123.461-1.123 1.12v5.67c0 .594.462 1.122 1.123 1.122.66 0 1.123-.462 1.123-1.121v-5.67c0-.594-.462-1.121-1.123-1.121z"/>
        </g>
        <path d="M17.179 21.626c-4.824 0-8.722 3.89-8.722 8.704 0 4.813 3.898 8.703 8.722 8.703 4.823 0 8.721-3.89 8.721-8.703 0-4.814-3.898-8.704-8.721-8.704zm-2.049 4.022c0-1.12.925-2.044 2.049-2.044 1.123 0 2.048.923 2.048 2.044v5.803c0 1.12-.925 2.044-2.048 2.044a2.056 2.056 0 0 1-2.049-2.044v-5.803zm5.088 5.803c0 1.582-1.19 2.835-2.71 3.033v1.912h2.38c.198 0 .33.131.33.33 0 .197-.132.329-.33.329H14.47c-.199 0-.33-.132-.33-.33s.131-.33.33-.33h2.378v-1.911c-1.52-.198-2.709-1.451-2.709-3.033v-2.902c0-.197.132-.33.33-.33.199 0 .331.133.331.33v2.902a2.366 2.366 0 0 0 2.379 2.373 2.366 2.366 0 0 0 2.378-2.373v-2.902c0-.197.132-.33.33-.33.199 0 .33.133.33.33v2.902z"/>
        <path fill="#000" fill-rule="nonzero" d="M17.179 20.703c-5.286 0-9.647 4.286-9.647 9.627 0 5.34 4.36 9.626 9.647 9.626 5.285 0 9.646-4.352 9.646-9.626 0-5.275-4.36-9.627-9.646-9.627zm0 18.33c-4.824 0-8.722-3.89-8.722-8.703 0-4.814 3.898-8.704 8.722-8.704 4.823 0 8.721 3.89 8.721 8.704 0 4.813-3.898 8.703-8.721 8.703z"/>
        <path fill="#000" fill-rule="nonzero" d="M17.179 33.495a2.056 2.056 0 0 0 2.048-2.044v-5.803c0-1.12-.925-2.044-2.048-2.044a2.056 2.056 0 0 0-2.049 2.044v5.803c0 1.12.925 2.044 2.049 2.044z"/>
        <path fill="#000" fill-rule="nonzero" d="M19.887 28.22c-.198 0-.33.132-.33.33v2.9a2.366 2.366 0 0 1-2.378 2.374 2.366 2.366 0 0 1-2.379-2.373v-2.902c0-.197-.132-.33-.33-.33-.199 0-.33.133-.33.33v2.902c0 1.582 1.189 2.835 2.708 3.033v1.912H14.47c-.199 0-.33.131-.33.33 0 .197.131.329.33.329h5.417c.199 0 .33-.132.33-.33s-.131-.33-.33-.33H17.51v-1.911c1.52-.198 2.709-1.451 2.709-3.033v-2.902c0-.197-.132-.33-.33-.33z"/>
    </g>
</svg>
