<svg xmlns="http://www.w3.org/2000/svg" width="60" height="60" viewBox="0 0 60 60">
    <g fill="#000" fill-rule="nonzero">
        <path d="M45.823 13.567c1.318-1.911 4.154-6.722 2.022-10.102-1.028-1.629-2.793-2.184-3.546-2.42-2.256-.711-5.983-.736-10.92 3.17-1.693 1.339-4.792 4.782-5.303 8.784H25c-.255 0-.501.098-.687.272l-9 8.489c-.2.191-.313.454-.313.729V59a1 1 0 0 0 1 1h28a1 1 0 0 0 1-1V22.489c0-.275-.113-.538-.313-.728l-3.671-3.463c1.749-1.19 3.426-2.728 4.807-4.731zM43 22.921V58H17V22.921L25.397 15h9.205l3.094 2.918a21.102 21.102 0 0 1-4.02 1.511A4.002 4.002 0 0 0 30 17c-2.206 0-4 1.794-4 4s1.794 4 4 4c2.058 0 3.737-1.566 3.956-3.566a22.76 22.76 0 0 0 5.292-2.052L43 22.921zm-11.198-1.069A1.997 1.997 0 0 1 30 23c-1.103 0-2-.897-2-2s.897-2 2-2c.676 0 1.272.339 1.635.855-.67.1-1.235.145-1.635.145v2c.46 0 1.082-.047 1.802-.148zm7.718-4.964l-3.833-3.616A1.007 1.007 0 0 0 35 13h-4.901c.545-3.382 3.371-6.305 4.522-7.217 3.41-2.698 6.464-3.651 9.079-2.829.636.199 1.817.571 2.454 1.579 1.223 1.938-.22 5.351-1.978 7.898-1.318 1.911-2.955 3.362-4.656 4.457z"/>
        <path d="M30 29c-4.963 0-9 4.262-9 9.5 0 2.167.698 4.16 1.859 5.76l-2.808 8.424a1 1 0 0 0 1.265 1.264l2.606-.868 1.63.814a.998.998 0 0 0 1.395-.578l1.806-5.418c.409.06.823.102 1.247.102.424 0 .838-.042 1.246-.102l1.806 5.418a1 1 0 0 0 1.395.578l1.63-.814 2.606.868a.998.998 0 0 0 1.265-1.264L37.14 44.26A9.776 9.776 0 0 0 39 38.5c0-5.238-4.037-9.5-9-9.5zm-3.181 18.38l-1.403 4.21-.969-.484a.986.986 0 0 0-.763-.054l-1.103.367 1.827-5.482c.025.021.053.035.078.056.321.263.658.504 1.011.721l.092.059c.381.227.78.422 1.193.589.013.005.024.013.037.018zm1.524-1.601l-.005-.002a6.716 6.716 0 0 1-1.922-.846l-.079-.052a7.153 7.153 0 0 1-1.562-1.405A7.773 7.773 0 0 1 23 38.5c0-4.136 3.141-7.5 7-7.5s7 3.364 7 7.5a7.768 7.768 0 0 1-1.775 4.973 7.132 7.132 0 0 1-1.641 1.457 6.704 6.704 0 0 1-1.922.846l-.005.002A6.493 6.493 0 0 1 30 46a6.537 6.537 0 0 1-1.657-.221zm7.973 5.273a.99.99 0 0 0-.764.054l-.969.484-1.403-4.21c.013-.005.025-.013.037-.018a8.7 8.7 0 0 0 1.193-.59l.092-.059c.353-.216.69-.457 1.011-.721.025-.02.053-.035.078-.056l1.827 5.482-1.102-.366z"/>
        <path d="M31 42.816A2.996 2.996 0 0 0 33 40a1 1 0 0 0-.4-.8l-3.503-2.628A1 1 0 0 1 31 37h2a2.996 2.996 0 0 0-2-2.816V33h-2v1.184A2.996 2.996 0 0 0 27 37a1 1 0 0 0 .4.8l3.503 2.628A1 1 0 0 1 29 40h-2c0 1.302.839 2.402 2 2.816V44h2v-1.184zM13 3h2v3h-2zM18 9h3v2h-3zM13 14h2v3h-2zM7 9h3v2H7zM16.293 6.293l2-2 1.414 1.414-2 2zM16.293 13.707l1.414-1.414 2 2-1.414 1.414zM8.293 14.293l2-2 1.414 1.414-2 2zM8.293 5.707l1.414-1.414 2 2-1.414 1.414zM10 26c-1.654 0-3 1.346-3 3s1.346 3 3 3 3-1.346 3-3-1.346-3-3-3zm0 4a1 1 0 1 1 0-2 1 1 0 0 1 0 2zM0 39h2v2H0zM2 37h2v2H2zM4 39h2v2H4zM2 41h2v2H2zM8 48c-1.654 0-3 1.346-3 3s1.346 3 3 3 3-1.346 3-3-1.346-3-3-3zm0 4a1 1 0 1 1 0-2 1 1 0 0 1 0 2zM51 48c-1.654 0-3 1.346-3 3s1.346 3 3 3 3-1.346 3-3-1.346-3-3-3zm0 4a1 1 0 1 1 0-2 1 1 0 0 1 0 2zM54 40h2v2h-2zM56 38h2v2h-2zM58 40h2v2h-2zM56 42h2v2h-2zM53 29c0-1.654-1.346-3-3-3s-3 1.346-3 3 1.346 3 3 3 3-1.346 3-3zm-4 0a1 1 0 1 1 2 0 1 1 0 0 1-2 0zM54 16h2v2h-2zM56 14h2v2h-2zM58 16h2v2h-2zM56 18h2v2h-2z"/>
    </g>
</svg>
